<svg id="Layer_1" data-name="Layer 1" xmlns="http://www.w3.org/2000/svg" viewBox="0 0 396.97 294.29"><defs><style>.cls-1{fill:#fff;}.cls-2{fill:#d72333;}</style></defs><path class="cls-1" d="M76.78,201.18q0-9.3-3.57-15t-12.88-5.66V153.7a17.68,17.68,0,0,0,7.83-1.55,12.72,12.72,0,0,0,5-4.26,18.7,18.7,0,0,0,2.71-6.52,37.78,37.78,0,0,0,.86-8.3,113.52,113.52,0,0,0-.86-13.81q-.86-7-1.94-14T72,91.18a120,120,0,0,1-.85-14.28A68,68,0,0,1,74.84,54,44.17,44.17,0,0,1,86.16,36.41a51.42,51.42,0,0,1,19.48-11.25q11.77-4,28.23-4h8.07V42a7.68,7.68,0,0,1-1.08,4.19A9.8,9.8,0,0,1,138.22,49,11.86,11.86,0,0,1,135,50.6a9.75,9.75,0,0,1-3,.55q-9.76,0-14.35,6.05T113.08,74q0,8.53.7,16.14t1.47,14.66q.78,7.06,1.48,13.89a134.28,134.28,0,0,1,.7,13.81,41.15,41.15,0,0,1-1.55,11.32,33.63,33.63,0,0,1-4.74,10,35.2,35.2,0,0,1-7.83,8.07A34.6,34.6,0,0,1,92.6,167.2a35.59,35.59,0,0,1,10.71,5.28,33.41,33.41,0,0,1,12.57,18.07,41.55,41.55,0,0,1,1.55,11.25,134.28,134.28,0,0,1-.7,13.81c-.47,4.56-1,9.18-1.48,13.89s-1,9.59-1.47,14.66-.7,10.45-.7,16.14q0,10.69,4.58,16.75T132,283.11a9.7,9.7,0,0,1,3,.54,11.86,11.86,0,0,1,3.26,1.63,9.8,9.8,0,0,1,2.64,2.79,7.68,7.68,0,0,1,1.08,4.19v20.79h-8.07q-16.44,0-28.23-4a51,51,0,0,1-19.48-11.32,45,45,0,0,1-11.32-17.61,67.42,67.42,0,0,1-3.65-22.81A120,120,0,0,1,72,243.07Q72.9,235.95,74,229t1.94-14A113.39,113.39,0,0,0,76.78,201.18Z" transform="translate(-60.33 -21.2)"/><path class="cls-2" d="M350.27,259.3h-41.1a5.83,5.83,0,0,1-5.83-5.82V169.55a5.82,5.82,0,0,0-5.82-5.83H217.31a5.83,5.83,0,0,0-5.82,5.83v83.93a5.83,5.83,0,0,1-5.82,5.82H164.56a5.82,5.82,0,0,1-5.82-5.82V39.06a5.81,5.81,0,0,1,5.82-5.82h41.11a5.82,5.82,0,0,1,5.82,5.82V121.9a5.83,5.83,0,0,0,5.82,5.83h80.21a5.82,5.82,0,0,0,5.82-5.83V39.06a5.82,5.82,0,0,1,5.83-5.82h41.1a5.82,5.82,0,0,1,5.83,5.82V253.48A5.83,5.83,0,0,1,350.27,259.3Z" transform="translate(-60.33 -21.2)"/><path class="cls-1" d="M440.86,203.62a113.61,113.61,0,0,0,.85,13.81q.85,7,1.94,14t1.94,14.12a120,120,0,0,1,.85,14.28,67.86,67.86,0,0,1-3.64,22.8,44.89,44.89,0,0,1-11.33,17.61A51.19,51.19,0,0,1,412,311.53q-11.81,4-28.24,4h-8.07v-20.8a7.56,7.56,0,0,1,1.09-4.18,9.8,9.8,0,0,1,2.63-2.8,12.44,12.44,0,0,1,3.26-1.63,10,10,0,0,1,2.95-.54q9.78,0,14.35-6.05t4.58-16.76q0-8.52-.7-16.13c-.46-5.07-1-10-1.47-14.67s-1-9.33-1.48-13.88a137.31,137.31,0,0,1-.69-13.81A41.06,41.06,0,0,1,401.76,193a33.46,33.46,0,0,1,4.73-10.09,34,34,0,0,1,18.38-13.26,33.78,33.78,0,0,1-10.62-5.35,35.94,35.94,0,0,1-7.76-8.07,33.47,33.47,0,0,1-4.73-10,40.84,40.84,0,0,1-1.55-11.33,137.46,137.46,0,0,1,.69-13.81q.71-6.82,1.48-13.88c.51-4.71,1-9.6,1.47-14.67s.7-10.44.7-16.13q0-10.71-4.58-16.76t-14.35-6.05a10,10,0,0,1-2.95-.54,12.14,12.14,0,0,1-3.26-1.63,9.76,9.76,0,0,1-2.63-2.79,7.62,7.62,0,0,1-1.09-4.19V23.64h8.07q16.44,0,28.24,3.95a51.71,51.71,0,0,1,19.47,11.25A44.19,44.19,0,0,1,442.8,56.45a68.61,68.61,0,0,1,3.64,22.89,119.82,119.82,0,0,1-.85,14.27q-.85,7.14-1.94,14.12t-1.94,14a113.61,113.61,0,0,0-.85,13.81,37.8,37.8,0,0,0,.85,8.3,18.44,18.44,0,0,0,2.72,6.52,12.79,12.79,0,0,0,5,4.27,17.82,17.82,0,0,0,7.83,1.55V183q-9.3,0-12.87,5.66T440.86,203.62Z" transform="translate(-60.33 -21.2)"/></svg>