<svg width="764" height="202" viewBox="0 0 764 202" fill="none" xmlns="http://www.w3.org/2000/svg">
<path d="M236.656 153V49.7273H264.693V90.0682H301.807V49.7273H329.844V153H301.807V112.659H264.693V153H236.656ZM365.142 154.21C360.2 154.21 355.83 153.403 352.031 151.79C348.266 150.143 345.308 147.655 343.156 144.327C341.005 140.999 339.929 136.763 339.929 131.619C339.929 127.384 340.652 123.77 342.097 120.778C343.543 117.752 345.56 115.281 348.148 113.365C350.737 111.449 353.746 109.987 357.175 108.978C360.637 107.969 364.369 107.314 368.369 107.011C372.706 106.675 376.185 106.272 378.808 105.801C381.463 105.297 383.38 104.608 384.556 103.734C385.733 102.826 386.321 101.633 386.321 100.153V99.9517C386.321 97.9347 385.548 96.3883 384.001 95.3125C382.455 94.2367 380.472 93.6989 378.051 93.6989C375.395 93.6989 373.227 94.2872 371.546 95.4638C369.899 96.6068 368.907 98.3717 368.571 100.759H342.955C343.291 96.0521 344.787 91.7154 347.442 87.7486C350.132 83.7481 354.048 80.5545 359.192 78.1676C364.335 75.7472 370.756 74.5369 378.455 74.5369C384.001 74.5369 388.977 75.1925 393.381 76.5036C397.785 77.781 401.533 79.5795 404.626 81.8991C407.719 84.1851 410.072 86.8745 411.685 89.9673C413.333 93.0265 414.156 96.3546 414.156 99.9517V153H388.136V142.108H387.531C385.985 144.999 384.102 147.335 381.884 149.117C379.698 150.899 377.194 152.193 374.37 153C371.58 153.807 368.504 154.21 365.142 154.21ZM374.219 136.662C376.337 136.662 378.32 136.225 380.169 135.351C382.052 134.477 383.581 133.216 384.758 131.569C385.934 129.922 386.523 127.921 386.523 125.568V119.114C385.783 119.416 384.993 119.702 384.153 119.971C383.346 120.24 382.472 120.492 381.531 120.727C380.623 120.963 379.648 121.181 378.606 121.383C377.597 121.585 376.538 121.769 375.429 121.938C373.277 122.274 371.513 122.828 370.134 123.602C368.79 124.341 367.781 125.266 367.109 126.375C366.47 127.451 366.151 128.661 366.151 130.006C366.151 132.157 366.907 133.804 368.42 134.947C369.933 136.09 371.866 136.662 374.219 136.662ZM498.254 100.759H472.638C472.503 99.1785 471.949 97.817 470.974 96.674C469.999 95.531 468.738 94.657 467.192 94.0518C465.679 93.4131 463.998 93.0938 462.149 93.0938C459.762 93.0938 457.712 93.5308 455.997 94.4048C454.283 95.2789 453.442 96.5227 453.476 98.1364C453.442 99.2794 453.93 100.338 454.938 101.313C455.981 102.288 457.981 103.045 460.939 103.582L476.672 106.406C484.606 107.852 490.506 110.289 494.372 113.718C498.271 117.113 500.238 121.669 500.271 127.384C500.238 132.897 498.591 137.687 495.33 141.755C492.102 145.789 487.682 148.915 482.068 151.134C476.487 153.319 470.117 154.412 462.956 154.412C451.123 154.412 441.861 151.991 435.171 147.151C428.515 142.31 424.8 135.922 424.027 127.989H451.661C452.03 130.443 453.241 132.342 455.291 133.687C457.376 134.998 459.998 135.653 463.158 135.653C465.713 135.653 467.814 135.216 469.461 134.342C471.142 133.468 471.999 132.224 472.033 130.611C471.999 129.132 471.26 127.955 469.814 127.081C468.402 126.207 466.183 125.501 463.158 124.963L449.442 122.543C441.542 121.164 435.625 118.542 431.692 114.676C427.759 110.81 425.809 105.835 425.843 99.75C425.809 94.3712 427.221 89.816 430.078 86.0845C432.969 82.3194 437.088 79.4619 442.433 77.5121C447.811 75.5286 454.182 74.5369 461.544 74.5369C472.739 74.5369 481.563 76.8565 488.018 81.4957C494.506 86.1349 497.918 92.5559 498.254 100.759ZM581.735 100.759H556.118C555.984 99.1785 555.429 97.817 554.454 96.674C553.479 95.531 552.219 94.657 550.672 94.0518C549.16 93.4131 547.479 93.0938 545.63 93.0938C543.243 93.0938 541.192 93.5308 539.478 94.4048C537.763 95.2789 536.923 96.5227 536.956 98.1364C536.923 99.2794 537.41 100.338 538.419 101.313C539.461 102.288 541.461 103.045 544.42 103.582L560.153 106.406C568.086 107.852 573.986 110.289 577.852 113.718C581.752 117.113 583.718 121.669 583.752 127.384C583.718 132.897 582.071 137.687 578.81 141.755C575.583 145.789 571.162 148.915 565.548 151.134C559.968 153.319 553.597 154.412 546.437 154.412C534.603 154.412 525.342 151.991 518.652 147.151C511.996 142.31 508.281 135.922 507.508 127.989H535.141C535.511 130.443 536.721 132.342 538.772 133.687C540.856 134.998 543.478 135.653 546.638 135.653C549.193 135.653 551.294 135.216 552.942 134.342C554.622 133.468 555.48 132.224 555.513 130.611C555.48 129.132 554.74 127.955 553.295 127.081C551.883 126.207 549.664 125.501 546.638 124.963L532.922 122.543C525.022 121.164 519.106 118.542 515.172 114.676C511.239 110.81 509.289 105.835 509.323 99.75C509.289 94.3712 510.701 89.816 513.559 86.0845C516.45 82.3194 520.568 79.4619 525.913 77.5121C531.292 75.5286 537.662 74.5369 545.025 74.5369C556.219 74.5369 565.044 76.8565 571.498 81.4957C577.987 86.1349 581.399 92.5559 581.735 100.759ZM615.999 154.21C611.058 154.21 606.687 153.403 602.889 151.79C599.124 150.143 596.165 147.655 594.014 144.327C591.862 140.999 590.786 136.763 590.786 131.619C590.786 127.384 591.509 123.77 592.955 120.778C594.4 117.752 596.417 115.281 599.006 113.365C601.594 111.449 604.603 109.987 608.032 108.978C611.495 107.969 615.226 107.314 619.227 107.011C623.563 106.675 627.043 106.272 629.665 105.801C632.321 105.297 634.237 104.608 635.414 103.734C636.59 102.826 637.178 101.633 637.178 100.153V99.9517C637.178 97.9347 636.405 96.3883 634.859 95.3125C633.312 94.2367 631.329 93.6989 628.909 93.6989C626.253 93.6989 624.084 94.2872 622.404 95.4638C620.756 96.6068 619.765 98.3717 619.428 100.759H593.812C594.148 96.0521 595.644 91.7154 598.3 87.7486C600.989 83.7481 604.906 80.5545 610.049 78.1676C615.193 75.7472 621.614 74.5369 629.312 74.5369C634.859 74.5369 639.834 75.1925 644.238 76.5036C648.642 77.781 652.39 79.5795 655.483 81.8991C658.576 84.1851 660.929 86.8745 662.543 89.9673C664.19 93.0265 665.014 96.3546 665.014 99.9517V153H638.994V142.108H638.389C636.842 144.999 634.96 147.335 632.741 149.117C630.556 150.899 628.051 152.193 625.227 153C622.437 153.807 619.361 154.21 615.999 154.21ZM625.076 136.662C627.194 136.662 629.177 136.225 631.026 135.351C632.909 134.477 634.439 133.216 635.615 131.569C636.792 129.922 637.38 127.921 637.38 125.568V119.114C636.641 119.416 635.851 119.702 635.01 119.971C634.203 120.24 633.329 120.492 632.388 120.727C631.48 120.963 630.505 121.181 629.463 121.383C628.455 121.585 627.396 121.769 626.286 121.938C624.135 122.274 622.37 122.828 620.992 123.602C619.647 124.341 618.638 125.266 617.966 126.375C617.327 127.451 617.008 128.661 617.008 130.006C617.008 132.157 617.764 133.804 619.277 134.947C620.79 136.09 622.723 136.662 625.076 136.662ZM706.149 109.432V153H678.314V75.5455H704.737V90.2699H705.544C707.225 85.3617 710.183 81.5125 714.419 78.7223C718.688 75.9321 723.663 74.5369 729.345 74.5369C734.824 74.5369 739.581 75.7976 743.615 78.3189C747.683 80.8066 750.826 84.2356 753.045 88.6058C755.297 92.9761 756.407 97.9683 756.373 103.582V153H728.538V109.432C728.572 105.599 727.597 102.591 725.613 100.406C723.663 98.2204 720.94 97.1278 717.444 97.1278C715.158 97.1278 713.158 97.6321 711.444 98.6406C709.763 99.6155 708.468 101.027 707.561 102.876C706.653 104.692 706.182 106.877 706.149 109.432Z" fill="#121723"/>
<path d="M0 12C0 5.37258 5.37258 0 12 0H195C201.627 0 207 5.37258 207 12V190C207 196.627 201.627 202 195 202H12C5.37258 202 0 196.627 0 190V12Z" fill="#A5B5FB"/>
<path d="M21.6562 49.7273H56.5511L80.554 108.222H81.7642L105.767 49.7273H140.662V153H113.23V93.2955H112.423L89.429 152.193H72.8892L49.8949 92.892H49.0881V153H21.6562V49.7273ZM169.48 154.614C165.581 154.614 162.236 153.252 159.446 150.529C156.689 147.772 155.328 144.428 155.361 140.494C155.328 136.662 156.689 133.384 159.446 130.661C162.236 127.938 165.581 126.577 169.48 126.577C173.178 126.577 176.439 127.938 179.263 130.661C182.121 133.384 183.566 136.662 183.6 140.494C183.566 143.116 182.877 145.503 181.532 147.655C180.221 149.773 178.507 151.47 176.389 152.748C174.271 153.992 171.968 154.614 169.48 154.614Z" fill="#121723"/>
</svg>
