<svg width="207" height="202" viewBox="0 0 207 202" fill="none" xmlns="http://www.w3.org/2000/svg">
<path d="M0 12C0 5.37258 5.37258 0 12 0H195C201.627 0 207 5.37258 207 12V190C207 196.627 201.627 202 195 202H12C5.37258 202 0 196.627 0 190V12Z" fill="#A5B5FB"/>
<path d="M21.6562 49.7273H56.5511L80.554 108.222H81.7642L105.767 49.7273H140.662V153H113.23V93.2955H112.423L89.429 152.193H72.8892L49.8949 92.892H49.0881V153H21.6562V49.7273ZM169.48 154.614C165.581 154.614 162.236 153.252 159.446 150.529C156.689 147.772 155.328 144.428 155.361 140.494C155.328 136.662 156.689 133.384 159.446 130.661C162.236 127.938 165.581 126.577 169.48 126.577C173.178 126.577 176.439 127.938 179.263 130.661C182.121 133.384 183.566 136.662 183.6 140.494C183.566 143.116 182.877 145.503 181.532 147.655C180.221 149.773 178.507 151.47 176.389 152.748C174.271 153.992 171.968 154.614 169.48 154.614Z" fill="#121723"/>
</svg>
